#tb 0: 1/25
#media_type 0: video
#codec_id 0: rawvideo
#dimensions 0: 176x144
#sar 0: 1/1
0,          0,          0,        1,    38016, 0xeca73b2e
0,          1,          1,        1,    38016, 0xe385e101
0,          2,          2,        1,    38016, 0x7c919b29
0,          3,          3,        1,    38016, 0xb76663e8
0,          4,          4,        1,    38016, 0x9f465130
0,          5,          5,        1,    38016, 0x37ee7039
0,          6,          6,        1,    38016, 0xa5d19ae9
0,          7,          7,        1,    38016, 0x4ac2a889
0,          8,          8,        1,    38016, 0xf46ca81c
0,          9,          9,        1,    38016, 0x69e4908b
0,         10,         10,        1,    38016, 0xc44a26db
0,         11,         11,        1,    38016, 0xbdcd2731
0,         12,         12,        1,    38016, 0xf0a732e6
0,         13,         13,        1,    38016, 0xb30052eb
0,         14,         14,        1,    38016, 0x94617644
0,         15,         15,        1,    38016, 0xa2c7c6ac
0,         16,         16,        1,    38016, 0x0515c300
0,         17,         17,        1,    38016, 0x774ebf4f
0,         18,         18,        1,    38016, 0x277cc4c0
0,         19,         19,        1,    38016, 0x5c0dcb90
0,         20,         20,        1,    38016, 0x404bc615
0,         21,         21,        1,    38016, 0xceebc6e6
0,         22,         22,        1,    38016, 0x3ca2c7ae
0,         23,         23,        1,    38016, 0xd367cdf7
0,         24,         24,        1,    38016, 0xc66ad265
0,         25,         25,        1,    38016, 0xb325e5da
0,         26,         26,        1,    38016, 0xfb0faace
0,         27,         27,        1,    38016, 0x3f1472f0
0,         28,         28,        1,    38016, 0x7aab4b85
0,         29,         29,        1,    38016, 0xa10690a7
0,         30,         30,        1,    38016, 0xd9e46131
0,         31,         31,        1,    38016, 0x6e0dbdca
0,         32,         32,        1,    38016, 0xdd6947c3
0,         33,         33,        1,    38016, 0x47d49075
0,         34,         34,        1,    38016, 0x1034ca60
0,         35,         35,        1,    38016, 0x3d1efad6
0,         36,         36,        1,    38016, 0x5851f16a
0,         37,         37,        1,    38016, 0xf71b059a
0,         38,         38,        1,    38016, 0x6e9f14ad
0,         39,         39,        1,    38016, 0xf9fcfd99
0,         40,         40,        1,    38016, 0xedce9d81
0,         41,         41,        1,    38016, 0x0151abdb
0,         42,         42,        1,    38016, 0x878cd785
0,         43,         43,        1,    38016, 0x3e58e055
0,         44,         44,        1,    38016, 0x6779b88d
0,         45,         45,        1,    38016, 0x41290782
0,         46,         46,        1,    38016, 0x55df360a
0,         47,         47,        1,    38016, 0x16495cfb
0,         48,         48,        1,    38016, 0xc4f56b6d
0,         49,         49,        1,    38016, 0x385d3523
0,         50,         50,        1,    38016, 0x1d374bab
0,         51,         51,        1,    38016, 0xe8b938b6
0,         52,         52,        1,    38016, 0x0d3720fc
0,         53,         53,        1,    38016, 0xac3ace30
0,         54,         54,        1,    38016, 0x0263a7d8
0,         55,         55,        1,    38016, 0x9694eb3c
0,         56,         56,        1,    38016, 0xf722e4d1
0,         57,         57,        1,    38016, 0x1f5edd42
0,         58,         58,        1,    38016, 0xa5f0c706
0,         59,         59,        1,    38016, 0xcf16ba1f
0,         60,         60,        1,    38016, 0x7edb86b2
0,         61,         61,        1,    38016, 0xf24e8ffe
0,         62,         62,        1,    38016, 0x07657fc8
0,         63,         63,        1,    38016, 0x83af2b15
0,         64,         64,        1,    38016, 0x1d10e965
0,         65,         65,        1,    38016, 0x4bf6cae0
0,         66,         66,        1,    38016, 0x3c1dff5b
0,         67,         67,        1,    38016, 0xaa424887
0,         68,         68,        1,    38016, 0xf65881f2
0,         69,         69,        1,    38016, 0xb2796c22
0,         70,         70,        1,    38016, 0x45d22b2d
0,         71,         71,        1,    38016, 0x0054d917
0,         72,         72,        1,    38016, 0x5c4deba1
0,         73,         73,        1,    38016, 0x55731f3c
0,         74,         74,        1,    38016, 0x31570fab
0,         75,         75,        1,    38016, 0xc85f4e17
0,         76,         76,        1,    38016, 0xf38af7e0
0,         77,         77,        1,    38016, 0x43c6c386
0,         78,         78,        1,    38016, 0x6175d284
0,         79,         79,        1,    38016, 0x4ef1fca3
0,        100,        100,        1,    38016, 0xbae62bbc
0,        101,        101,        1,    38016, 0x5666dea3
0,        102,        102,        1,    38016, 0x0063b576
0,        103,        103,        1,    38016, 0x3332ee86
0,        104,        104,        1,    38016, 0x51b56400
0,        105,        105,        1,    38016, 0x0323a296
